<mxfile host="app.diagrams.net" modified="2022-09-29T03:22:56.549Z" agent="5.0 (Macintosh; Intel Mac OS X 10_15_7) AppleWebKit/537.36 (KHTML, like Gecko) Chrome/105.0.0.0 Safari/537.36" etag="EPrAFfP8XGXUPzcf1meC" version="20.3.6" type="github">
  <diagram id="ZT6tx1BSaleB7-IJO2AJ" name="第 1 页">
    <mxGraphModel dx="1773" dy="581" grid="1" gridSize="10" guides="1" tooltips="1" connect="1" arrows="1" fold="1" page="1" pageScale="1" pageWidth="827" pageHeight="1169" math="0" shadow="0">
      <root>
        <mxCell id="0" />
        <mxCell id="1" parent="0" />
        <mxCell id="jiqBRiLihayTibAe6Loc-5" value="" style="edgeStyle=orthogonalEdgeStyle;rounded=0;orthogonalLoop=1;jettySize=auto;html=1;" edge="1" parent="1" source="jiqBRiLihayTibAe6Loc-1" target="jiqBRiLihayTibAe6Loc-2">
          <mxGeometry relative="1" as="geometry" />
        </mxCell>
        <mxCell id="jiqBRiLihayTibAe6Loc-1" value="beginWork" style="rounded=0;whiteSpace=wrap;html=1;" vertex="1" parent="1">
          <mxGeometry x="130" y="20" width="120" height="60" as="geometry" />
        </mxCell>
        <mxCell id="jiqBRiLihayTibAe6Loc-4" value="" style="edgeStyle=orthogonalEdgeStyle;rounded=0;orthogonalLoop=1;jettySize=auto;html=1;entryX=0.5;entryY=0;entryDx=0;entryDy=0;" edge="1" parent="1" source="jiqBRiLihayTibAe6Loc-2" target="jiqBRiLihayTibAe6Loc-14">
          <mxGeometry relative="1" as="geometry">
            <mxPoint x="190" y="245" as="targetPoint" />
            <Array as="points" />
          </mxGeometry>
        </mxCell>
        <mxCell id="jiqBRiLihayTibAe6Loc-6" value="true" style="edgeLabel;html=1;align=center;verticalAlign=middle;resizable=0;points=[];" vertex="1" connectable="0" parent="jiqBRiLihayTibAe6Loc-4">
          <mxGeometry x="-0.2267" y="-3" relative="1" as="geometry">
            <mxPoint as="offset" />
          </mxGeometry>
        </mxCell>
        <mxCell id="jiqBRiLihayTibAe6Loc-2" value="_DEV_" style="rhombus;whiteSpace=wrap;html=1;" vertex="1" parent="1">
          <mxGeometry x="115" y="120" width="150" height="50" as="geometry" />
        </mxCell>
        <mxCell id="jiqBRiLihayTibAe6Loc-7" value="函数call" style="rounded=0;whiteSpace=wrap;html=1;" vertex="1" parent="1">
          <mxGeometry x="1050" y="20" width="120" height="60" as="geometry" />
        </mxCell>
        <mxCell id="jiqBRiLihayTibAe6Loc-8" value="条件判断" style="rhombus;whiteSpace=wrap;html=1;" vertex="1" parent="1">
          <mxGeometry x="1070" y="105" width="80" height="80" as="geometry" />
        </mxCell>
        <mxCell id="jiqBRiLihayTibAe6Loc-10" value="" style="shape=curlyBracket;whiteSpace=wrap;html=1;rounded=1;flipH=1;" vertex="1" parent="1">
          <mxGeometry x="1120" y="200" width="20" height="120" as="geometry" />
        </mxCell>
        <mxCell id="jiqBRiLihayTibAe6Loc-13" value="函数执行体" style="shape=process;whiteSpace=wrap;html=1;backgroundOutline=1;" vertex="1" parent="1">
          <mxGeometry x="920" y="20" width="120" height="60" as="geometry" />
        </mxCell>
        <mxCell id="jiqBRiLihayTibAe6Loc-18" value="" style="edgeStyle=orthogonalEdgeStyle;rounded=0;orthogonalLoop=1;jettySize=auto;html=1;" edge="1" parent="1" source="jiqBRiLihayTibAe6Loc-14" target="jiqBRiLihayTibAe6Loc-17">
          <mxGeometry relative="1" as="geometry" />
        </mxCell>
        <mxCell id="jiqBRiLihayTibAe6Loc-14" value="若 fiber 的current树不为空，且 wip的&lt;span style=&quot;color: rgb(38, 139, 210); background-color: rgb(253, 246, 227); font-family: Menlo, Monaco, &amp;quot;Courier New&amp;quot;, monospace; font-size: 14px;&quot;&gt;_debugNeedsRemount&lt;/span&gt;为真，则执行重挂载 fiber方法(&lt;span style=&quot;color: rgb(38, 139, 210); background-color: rgb(253, 246, 227); font-family: Menlo, Monaco, &amp;quot;Courier New&amp;quot;, monospace; font-size: 14px;&quot;&gt;remountFiber&lt;/span&gt;&lt;span style=&quot;background-color: initial;&quot;&gt;)&lt;/span&gt;" style="shape=process;whiteSpace=wrap;html=1;backgroundOutline=1;" vertex="1" parent="1">
          <mxGeometry x="50" y="210" width="280" height="100" as="geometry" />
        </mxCell>
        <mxCell id="jiqBRiLihayTibAe6Loc-16" value="&lt;div style=&quot;color: rgb(101, 123, 131); background-color: rgb(253, 246, 227); font-family: Menlo, Monaco, &amp;quot;Courier New&amp;quot;, monospace; font-size: 14px; line-height: 21px;&quot;&gt;&lt;span style=&quot;color: #268bd2;&quot;&gt;remountFiber后面画类图&lt;/span&gt;&lt;/div&gt;" style="text;html=1;align=center;verticalAlign=middle;resizable=0;points=[];autosize=1;strokeColor=none;fillColor=none;" vertex="1" parent="1">
          <mxGeometry x="360" y="230" width="190" height="30" as="geometry" />
        </mxCell>
        <mxCell id="jiqBRiLihayTibAe6Loc-20" value="" style="edgeStyle=orthogonalEdgeStyle;rounded=0;orthogonalLoop=1;jettySize=auto;html=1;" edge="1" parent="1" source="jiqBRiLihayTibAe6Loc-17" target="jiqBRiLihayTibAe6Loc-19">
          <mxGeometry relative="1" as="geometry" />
        </mxCell>
        <mxCell id="jiqBRiLihayTibAe6Loc-21" value="!==null" style="edgeLabel;html=1;align=center;verticalAlign=middle;resizable=0;points=[];" vertex="1" connectable="0" parent="jiqBRiLihayTibAe6Loc-20">
          <mxGeometry x="-0.3333" y="-4" relative="1" as="geometry">
            <mxPoint as="offset" />
          </mxGeometry>
        </mxCell>
        <mxCell id="jiqBRiLihayTibAe6Loc-22" style="edgeStyle=orthogonalEdgeStyle;rounded=0;orthogonalLoop=1;jettySize=auto;html=1;exitX=1;exitY=0.5;exitDx=0;exitDy=0;" edge="1" parent="1" source="jiqBRiLihayTibAe6Loc-17" target="jiqBRiLihayTibAe6Loc-23">
          <mxGeometry relative="1" as="geometry">
            <mxPoint x="460" y="480" as="targetPoint" />
          </mxGeometry>
        </mxCell>
        <mxCell id="jiqBRiLihayTibAe6Loc-24" value="===null" style="edgeLabel;html=1;align=center;verticalAlign=middle;resizable=0;points=[];" vertex="1" connectable="0" parent="jiqBRiLihayTibAe6Loc-22">
          <mxGeometry x="-0.0051" y="2" relative="1" as="geometry">
            <mxPoint as="offset" />
          </mxGeometry>
        </mxCell>
        <mxCell id="jiqBRiLihayTibAe6Loc-17" value="current" style="rhombus;whiteSpace=wrap;html=1;" vertex="1" parent="1">
          <mxGeometry x="150" y="350" width="80" height="80" as="geometry" />
        </mxCell>
        <mxCell id="jiqBRiLihayTibAe6Loc-26" value="" style="edgeStyle=orthogonalEdgeStyle;rounded=0;orthogonalLoop=1;jettySize=auto;html=1;" edge="1" parent="1" source="jiqBRiLihayTibAe6Loc-19" target="jiqBRiLihayTibAe6Loc-25">
          <mxGeometry relative="1" as="geometry" />
        </mxCell>
        <mxCell id="jiqBRiLihayTibAe6Loc-19" value="校验props或者 context 是否有改变，如果有则标记 &lt;b&gt;didReceiveUpdate&lt;/b&gt;为 true，（如果后面 props 比较相等则不会被配置）。若props或者 context没有改变则校验是否有等待的更新队列或者 context 是否改变，若都没有则把&lt;b&gt;didReceiveUpdate&lt;/b&gt;置为 false，在二阶段不更新并脱离，否则置为 true" style="shape=process;whiteSpace=wrap;html=1;backgroundOutline=1;align=center;" vertex="1" parent="1">
          <mxGeometry x="45" y="500" width="290" height="170" as="geometry" />
        </mxCell>
        <mxCell id="jiqBRiLihayTibAe6Loc-27" style="edgeStyle=orthogonalEdgeStyle;rounded=0;orthogonalLoop=1;jettySize=auto;html=1;exitX=0.5;exitY=1;exitDx=0;exitDy=0;entryX=1;entryY=0.5;entryDx=0;entryDy=0;" edge="1" parent="1" source="jiqBRiLihayTibAe6Loc-23" target="jiqBRiLihayTibAe6Loc-25">
          <mxGeometry relative="1" as="geometry" />
        </mxCell>
        <mxCell id="jiqBRiLihayTibAe6Loc-23" value="&lt;b&gt;didReceiveUpdate&lt;/b&gt;置为 false，检验是否有子组件，有的话要把相应的 fiber 树 id 附上" style="shape=process;whiteSpace=wrap;html=1;backgroundOutline=1;" vertex="1" parent="1">
          <mxGeometry x="414" y="520" width="150" height="110" as="geometry" />
        </mxCell>
        <mxCell id="jiqBRiLihayTibAe6Loc-29" style="edgeStyle=orthogonalEdgeStyle;rounded=0;orthogonalLoop=1;jettySize=auto;html=1;exitX=0.5;exitY=1;exitDx=0;exitDy=0;entryX=0.5;entryY=0;entryDx=0;entryDy=0;" edge="1" parent="1" source="jiqBRiLihayTibAe6Loc-25" target="jiqBRiLihayTibAe6Loc-28">
          <mxGeometry relative="1" as="geometry" />
        </mxCell>
        <mxCell id="jiqBRiLihayTibAe6Loc-31" style="edgeStyle=orthogonalEdgeStyle;rounded=0;orthogonalLoop=1;jettySize=auto;html=1;exitX=0.5;exitY=1;exitDx=0;exitDy=0;" edge="1" parent="1" source="jiqBRiLihayTibAe6Loc-25" target="jiqBRiLihayTibAe6Loc-30">
          <mxGeometry relative="1" as="geometry" />
        </mxCell>
        <mxCell id="jiqBRiLihayTibAe6Loc-33" style="edgeStyle=orthogonalEdgeStyle;rounded=0;orthogonalLoop=1;jettySize=auto;html=1;exitX=0.5;exitY=1;exitDx=0;exitDy=0;entryX=0.5;entryY=0;entryDx=0;entryDy=0;" edge="1" parent="1" source="jiqBRiLihayTibAe6Loc-25" target="jiqBRiLihayTibAe6Loc-32">
          <mxGeometry relative="1" as="geometry" />
        </mxCell>
        <mxCell id="jiqBRiLihayTibAe6Loc-25" value="fiber.tag" style="rhombus;whiteSpace=wrap;html=1;" vertex="1" parent="1">
          <mxGeometry x="130" y="710" width="120" height="90" as="geometry" />
        </mxCell>
        <mxCell id="jiqBRiLihayTibAe6Loc-41" style="edgeStyle=orthogonalEdgeStyle;rounded=0;orthogonalLoop=1;jettySize=auto;html=1;entryX=0;entryY=0.5;entryDx=0;entryDy=0;" edge="1" parent="1" source="jiqBRiLihayTibAe6Loc-28" target="jiqBRiLihayTibAe6Loc-38">
          <mxGeometry relative="1" as="geometry">
            <Array as="points">
              <mxPoint x="-35" y="1130" />
            </Array>
          </mxGeometry>
        </mxCell>
        <mxCell id="jiqBRiLihayTibAe6Loc-28" value="&lt;div style=&quot;color: rgb(101, 123, 131); background-color: rgb(253, 246, 227); font-family: Menlo, Monaco, &amp;quot;Courier New&amp;quot;, monospace; font-size: 14px; line-height: 21px;&quot;&gt;&lt;div style=&quot;line-height: 21px;&quot;&gt;&lt;span style=&quot;color: #268bd2;&quot;&gt;updateHostRoot&lt;/span&gt;&lt;/div&gt;&lt;/div&gt;" style="rounded=0;whiteSpace=wrap;html=1;" vertex="1" parent="1">
          <mxGeometry x="-110" y="960" width="150" height="60" as="geometry" />
        </mxCell>
        <mxCell id="jiqBRiLihayTibAe6Loc-39" style="edgeStyle=orthogonalEdgeStyle;rounded=0;orthogonalLoop=1;jettySize=auto;html=1;" edge="1" parent="1" source="jiqBRiLihayTibAe6Loc-30" target="jiqBRiLihayTibAe6Loc-38">
          <mxGeometry relative="1" as="geometry" />
        </mxCell>
        <mxCell id="jiqBRiLihayTibAe6Loc-30" value="&lt;div style=&quot;color: rgb(101, 123, 131); background-color: rgb(253, 246, 227); font-family: Menlo, Monaco, &amp;quot;Courier New&amp;quot;, monospace; font-size: 14px; line-height: 21px;&quot;&gt;&lt;div style=&quot;line-height: 21px;&quot;&gt;&lt;span style=&quot;color: rgb(38, 139, 210);&quot;&gt;updateFunctionComp&lt;/span&gt;&lt;/div&gt;&lt;div style=&quot;line-height: 21px;&quot;&gt;&lt;span style=&quot;color: rgb(38, 139, 210);&quot;&gt;onent&lt;/span&gt;&lt;/div&gt;&lt;/div&gt;" style="rounded=0;whiteSpace=wrap;html=1;" vertex="1" parent="1">
          <mxGeometry x="105" y="960" width="170" height="60" as="geometry" />
        </mxCell>
        <mxCell id="jiqBRiLihayTibAe6Loc-40" style="edgeStyle=orthogonalEdgeStyle;rounded=0;orthogonalLoop=1;jettySize=auto;html=1;entryX=1;entryY=0.5;entryDx=0;entryDy=0;" edge="1" parent="1" source="jiqBRiLihayTibAe6Loc-32" target="jiqBRiLihayTibAe6Loc-38">
          <mxGeometry relative="1" as="geometry">
            <Array as="points">
              <mxPoint x="430" y="1130" />
            </Array>
          </mxGeometry>
        </mxCell>
        <mxCell id="jiqBRiLihayTibAe6Loc-32" value="&lt;div style=&quot;color: rgb(101, 123, 131); background-color: rgb(253, 246, 227); font-family: Menlo, Monaco, &amp;quot;Courier New&amp;quot;, monospace; font-size: 14px; line-height: 21px;&quot;&gt;&lt;div style=&quot;line-height: 21px;&quot;&gt;&lt;span style=&quot;color: #268bd2;&quot;&gt;updateHostComponent&lt;/span&gt;&lt;/div&gt;&lt;/div&gt;" style="rounded=0;whiteSpace=wrap;html=1;" vertex="1" parent="1">
          <mxGeometry x="330" y="960" width="184" height="60" as="geometry" />
        </mxCell>
        <mxCell id="jiqBRiLihayTibAe6Loc-38" value="reconcileChildren基于当前节点生成" style="rounded=0;whiteSpace=wrap;html=1;" vertex="1" parent="1">
          <mxGeometry x="120" y="1110" width="140" height="70" as="geometry" />
        </mxCell>
      </root>
    </mxGraphModel>
  </diagram>
</mxfile>
